# xmcd
#
# Track frame offsets: 
#        150
#        18522
#        36537
#        56357
#        74927
#        90012
#        110842
#        128035
#        144200
#        161007
#        177810
#        197165
#        208647
#        223055
#        236352
#        252822
#        275097
#        292077
#        312522
#        328880
#
# Disc length: 4611 seconds
#
# Revision: 0
# Processed by: cddbd v1.5.2PL0 Copyright (c) Steve Scherf et al.
# Submitted via: ExactAudioCopy v0.90b4
#
DISCID=3a120114
DTITLE=Julio Iglesias - Best Collection Vol.2
DYEAR=1900
DGENRE=Latin
TTITLE0=Milonga (medley)
TTITLE1=Lia
TTITLE2=A Cana Y A Cafe (America)
TTITLE3=La Quiero Como Es
TTITLE4=De Domingo A Domingo
TTITLE5=Uno
TTITLE6=Y Aunque Te Haga Calor
TTITLE7=Me Ama Mo
TTITLE8=Somos
TTITLE9=Esos Amores
TTITLE10=Un Canto A Galicia
TTITLE11=Hombre Solitario
TTITLE12=A Veces Llegan Cartas
TTITLE13=Rio Rebelde
TTITLE14=Si Volvieras Otra Vez
TTITLE15=Por Una Mujer
TTITLE16=No Soy De Aqui
TTITLE17=En Un Rincon Del Desvan
TTITLE18=Sweet Caroline
TTITLE19=Como El Alamo Al Camino
EXTD=
EXTT0=
EXTT1=
EXTT2=
EXTT3=
EXTT4=
EXTT5=
EXTT6=
EXTT7=
EXTT8=
EXTT9=
EXTT10=
EXTT11=
EXTT12=
EXTT13=
EXTT14=
EXTT15=
EXTT16=
EXTT17=
EXTT18=
EXTT19=
PLAYORDER=
